# xmcd
#
# Track frame offsets:
#	150
#	19093
#	38727
#	58034
#	82114
#	100348
#	125422
#	162111
#	180244
#	214545
#	233799
#	256472
#	275999
#	313982
#	333287
#
# Disc length: 4724 seconds
#
# Revision: 1
# Processed by: cddbd v1.5.2PL0 Copyright (c) Steve Scherf et al.
# Submitted via: audiograbber 1.83.01
#
DISCID=d112720f
DTITLE=B.B. King - Ladies and Gentlemen.... Mr. B.B. King [CD 08) - When Love Com
DTITLE=es To Town (1985-1993)
DYEAR=2012
DGENRE=Blues
TTITLE0=Into The Night
TTITLE1=Six Silver Strings
TTITLE2=When Love Comes To Town [featuring U2]
TTITLE3=Standing On The Edge Of Love
TTITLE4=Lay Another Log On The Fire
TTITLE5=Take Off Your Shoes
TTITLE6=Nobody Love Me But My Mother [live]
TTITLE7=Right Place, Wrong Time
TTITLE8=All Over Again [live]
TTITLE9=I'm Moving On
TTITLE10=Back In L.A.
TTITLE11=Fool Me Once
TTITLE12=There Is Always One More Time
TTITLE13=Monday Morning Blues (Blues For Mr. G)
TTITLE14=Since I Met You Baby [live]
EXTD=
EXTT0=
EXTT1=
EXTT2=
EXTT3=
EXTT4=
EXTT5=
EXTT6=
EXTT7=
EXTT8=
EXTT9=
EXTT10=
EXTT11=
EXTT12=
EXTT13=
EXTT14=
PLAYORDER=
